<svg width="178" height="181" viewBox="0 0 178 181" fill="none" xmlns="http://www.w3.org/2000/svg">
<path fill-rule="evenodd" clip-rule="evenodd" d="M60.2005 100.25C53.3571 103.378 48.3438 110.818 48.3438 119.691C48.3438 128.755 52.053 135.741 57.3704 141.729C61.753 146.664 67.0582 150.754 72.2321 154.743C73.461 155.69 74.6825 156.632 75.8824 157.578C78.0523 159.288 79.9879 160.79 81.8536 161.88C83.7203 162.971 85.2229 163.469 86.5 163.469C87.7771 163.469 89.2797 162.971 91.1464 161.88C93.012 160.79 94.9477 159.288 97.1176 157.578C98.3175 156.632 99.539 155.69 100.768 154.743C105.942 150.754 111.247 146.664 115.63 141.729C120.947 135.741 124.656 128.755 124.656 119.691C124.656 110.818 119.643 103.378 112.8 100.25C106.151 97.2108 97.2181 98.0156 88.729 106.836C88.1458 107.441 87.341 107.784 86.5 107.784C85.659 107.784 84.8542 107.441 84.271 106.836C75.7819 98.0156 66.8488 97.2108 60.2005 100.25ZM86.5 100.393C76.9628 91.8597 66.2832 90.6661 57.6281 94.6223C48.4869 98.8008 42.1562 108.503 42.1562 119.691C42.1562 130.686 46.737 139.074 52.744 145.838C57.5544 151.254 63.4422 155.788 68.6422 159.792C69.8209 160.699 70.9643 161.58 72.0519 162.437C74.1648 164.103 76.4331 165.879 78.7319 167.222C81.0297 168.565 83.6521 169.656 86.5 169.656C89.3479 169.656 91.9703 168.565 94.2681 167.222C96.5669 165.879 98.8352 164.103 100.948 162.437C102.036 161.58 103.179 160.699 104.358 159.792C109.558 155.788 115.446 151.254 120.256 145.838C126.263 139.074 130.844 130.686 130.844 119.691C130.844 108.503 124.513 98.8008 115.372 94.6223C106.717 90.6661 96.0372 91.8597 86.5 100.393Z" fill="#FC4B4E"/>
<path fill-rule="evenodd" clip-rule="evenodd" d="M114.873 13.2726C109.896 15.5475 106.25 20.9587 106.25 27.4113C106.25 34.0035 108.948 39.0847 112.815 43.4393C116.002 47.0283 119.861 50.0029 123.623 52.9038C124.517 53.5928 125.405 54.2777 126.278 54.9656C127.856 56.2097 129.264 57.3016 130.621 58.0944C131.978 58.8878 133.071 59.25 134 59.25C134.929 59.25 136.022 58.8878 137.379 58.0944C138.736 57.3016 140.144 56.2097 141.722 54.9656C142.595 54.2777 143.483 53.5928 144.377 52.9038C148.139 50.0029 151.998 47.0283 155.185 43.4393C159.052 39.0847 161.75 34.0035 161.75 27.4113C161.75 20.9587 158.104 15.5475 153.127 13.2726C148.292 11.0624 141.795 11.6477 135.621 18.0622C135.197 18.5029 134.612 18.7519 134 18.7519C133.388 18.7519 132.803 18.5029 132.379 18.0622C126.205 11.6477 119.708 11.0624 114.873 13.2726ZM134 13.3764C127.064 7.1707 119.297 6.30259 113.002 9.17986C106.354 12.2187 101.75 19.2751 101.75 27.4113C101.75 35.4079 105.081 41.5081 109.45 46.4274C112.949 50.3668 117.231 53.6638 121.012 56.5757C121.87 57.2358 122.701 57.8761 123.492 58.4996C125.029 59.711 126.679 61.0028 128.35 61.9797C130.022 62.9562 131.929 63.75 134 63.75C136.071 63.75 137.978 62.9562 139.65 61.9797C141.321 61.0028 142.971 59.711 144.508 58.4996C145.299 57.8761 146.13 57.2358 146.988 56.5757C150.769 53.6638 155.051 50.3668 158.55 46.4274C162.919 41.5081 166.25 35.4079 166.25 27.4113C166.25 19.2751 161.646 12.2187 154.998 9.17986C148.703 6.30259 140.936 7.1707 134 13.3764Z" fill="#FC4B4E"/>
<path fill-rule="evenodd" clip-rule="evenodd" d="M12.8892 53.1387C9.08731 54.8765 6.30209 59.01 6.30209 63.9391C6.30209 68.9748 8.3628 72.8563 11.3169 76.1827C13.7517 78.9243 16.699 81.1966 19.5734 83.4126C20.2561 83.9389 20.9347 84.4621 21.6014 84.9876C22.8069 85.9379 23.8822 86.772 24.9187 87.3776C25.9558 87.9836 26.7905 88.2603 27.5 88.2603C28.2095 88.2603 29.0443 87.9836 30.0813 87.3776C31.1178 86.772 32.1932 85.9379 33.3987 84.9876C34.0653 84.4621 34.7439 83.9389 35.4266 83.4126C38.301 81.1966 41.2483 78.9243 43.6831 76.1827C46.6372 72.8563 48.6979 68.9748 48.6979 63.9391C48.6979 59.01 45.9127 54.8765 42.1109 53.1387C38.4174 51.4504 33.4545 51.8975 28.7383 56.7974C28.4143 57.1341 27.9672 57.3243 27.5 57.3243C27.0328 57.3243 26.5857 57.1341 26.2617 56.7974C21.5455 51.8975 16.5827 51.4504 12.8892 53.1387ZM27.5 53.218C22.2016 48.4776 16.2685 47.8144 11.4601 50.0123C6.38164 52.3337 2.86459 57.7239 2.86459 63.9391C2.86459 70.0476 5.40948 74.7075 8.74665 78.4653C11.4191 81.4746 14.6901 83.9932 17.579 86.2175C18.2339 86.7217 18.8691 87.2108 19.4733 87.6871C20.6471 88.6125 21.9073 89.5993 23.1844 90.3456C24.4609 91.0915 25.9178 91.6978 27.5 91.6978C29.0822 91.6978 30.5391 91.0915 31.8156 90.3456C33.0927 89.5993 34.3529 88.6125 35.5268 87.6871C36.1309 87.2108 36.7662 86.7217 37.421 86.2175C40.3099 83.9931 43.5809 81.4746 46.2534 78.4653C49.5905 74.7075 52.1354 70.0476 52.1354 63.9391C52.1354 57.7239 48.6184 52.3337 43.5399 50.0123C38.7316 47.8144 32.7985 48.4776 27.5 53.218Z" fill="#FC4B4E"/>
<rect x="161" y="96" width="10" height="7" rx="3.5" transform="rotate(-90 161 96)" fill="#FC4B4E"/>
<rect x="167.5" y="95.5" width="10" height="7" rx="3.5" fill="#FC4B4E"/>
<rect x="168" y="102" width="10" height="7" rx="3.5" transform="rotate(90 168 102)" fill="#FC4B4E"/>
<rect x="161.5" y="102.5" width="10" height="7" rx="3.5" transform="rotate(180 161.5 102.5)" fill="#FC4B4E"/>
<rect x="51.5" y="27" width="10" height="7" rx="3.5" transform="rotate(-90 51.5 27)" fill="#FC4B4E"/>
<rect x="58" y="26.5" width="10" height="7" rx="3.5" fill="#FC4B4E"/>
<rect x="58.5" y="33" width="10" height="7" rx="3.5" transform="rotate(90 58.5 33)" fill="#FC4B4E"/>
<rect x="52" y="33.5" width="10" height="7" rx="3.5" transform="rotate(180 52 33.5)" fill="#FC4B4E"/>
<rect x="11.5" y="136" width="10" height="7" rx="3.5" transform="rotate(-90 11.5 136)" fill="#FC4B4E"/>
<rect x="18" y="135.5" width="10" height="7" rx="3.5" fill="#FC4B4E"/>
<rect x="18.5" y="142" width="10" height="7" rx="3.5" transform="rotate(90 18.5 142)" fill="#FC4B4E"/>
<rect x="12" y="142.5" width="10" height="7" rx="3.5" transform="rotate(180 12 142.5)" fill="#FC4B4E"/>
</svg>
